<?xml version="1.0" encoding="UTF-8"?><svg id="a" xmlns="http://www.w3.org/2000/svg" viewBox="0 0 600 600"><path d="M120.9,401.76c-8.75-.32-15.29-4.32-18.95-12.3-4.15-9.05-2.19-17.33,4.63-24.26,12.95-13.17,26.11-26.13,39.19-39.16,49.42-49.21,98.84-98.41,148.26-147.62,11.99-11.93,23.42-12.18,35.24-.42,61.96,61.62,123.84,123.32,185.79,184.94,6.43,6.4,10.64,13.52,8.14,22.86-4.45,16.68-23.9,21.54-36.71,8.93-28.28-27.84-56.31-55.94-84.43-83.95-28.32-28.2-56.76-56.29-84.79-84.77-4.6-4.67-6.76-3.94-10.87,.18-55.12,55.19-110.41,110.2-165.62,165.29-5.56,5.55-11.18,10.79-19.88,10.28Z"/></svg>