<?xml version="1.0" encoding="UTF-8"?><svg id="a" xmlns="http://www.w3.org/2000/svg" viewBox="0 0 600 600"><path d="M231.13,94.63c.32-8.75,4.32-15.29,12.3-18.95,9.05-4.15,17.33-2.19,24.26,4.63,13.17,12.95,26.13,26.11,39.16,39.19,49.21,49.42,98.41,98.84,147.62,148.26,11.93,11.99,12.18,23.42,.42,35.24-61.62,61.96-123.32,123.84-184.94,185.79-6.4,6.43-13.52,10.64-22.86,8.14-16.68-4.45-21.54-23.9-8.93-36.71,27.84-28.28,55.94-56.31,83.95-84.43,28.2-28.32,56.29-56.76,84.77-84.79,4.67-4.6,3.94-6.76-.18-10.87-55.19-55.12-110.2-110.41-165.29-165.62-5.55-5.56-10.79-11.18-10.28-19.88Z"/></svg>