<?xml version="1.0" encoding="UTF-8"?><svg id="a" xmlns="http://www.w3.org/2000/svg" viewBox="0 0 528.55 221.49"><defs><style>.b{fill:#8dc63f;}.c{fill:#ed1c25;}.d{fill:#231f20;}</style></defs><polygon class="c" points="50.62 27.07 50.62 164.77 82.26 164.77 82.26 59.6 50.62 27.07"/><polygon class="c" points="87.22 68.96 87.22 114.41 121.89 149.08 121.89 102.82 87.22 68.96"/><polygon class="c" points="156.48 68.96 156.48 114.41 121.81 149.08 121.81 102.82 156.48 68.96"/><path class="b" d="M253.08,93.75c13.01-2.69,23.74-14.24,23.74-31.58,0-18.37-13.41-35.1-39.63-35.1h-40.64v25.19h34.24c9.91,0,16.1,6.4,16.1,15.07s-6.19,14.86-16.1,14.86h-34.24v25.18h35.28c11.55,0,17.76,7.43,17.76,16.1,0,9.91-6.62,15.91-17.76,15.91h-35.28v25.39h42.91c26.22,0,40.05-16.51,40.05-37.17,0-17.34-11.77-31.58-26.43-33.85"/><polygon class="c" points="192.23 27.08 192.23 164.77 160.6 164.77 160.6 59.6 192.23 27.08"/><path class="b" d="M328.37,140.89l-8.93,22.21c-24.15-5.91-38.27-26.72-38.27-50.77,0-28.28,19.82-52.23,52.64-52.23,1.56,0,3.1,.05,4.61,.15l-14.84,25.24c-9.83,4.32-15.17,14.98-15.17,26.84,0,13.84,7.08,25.92,19.95,28.56"/><polygon class="b" points="381.96 164.77 381.96 47.89 408.18 27.07 408.18 164.77 381.96 164.77"/><path class="b" d="M427.76,137.52v-52.02h-16.51v-22.91h16.51v-14.69l26.43-20.82V62.58h20.23v22.91h-20.23v45c0,6.19,3.3,10.94,9.08,10.94,3.92,0,7.64-1.44,9.08-2.89l5.58,19.82c-3.92,3.51-10.94,6.4-21.89,6.4-18.37,0-28.28-9.5-28.28-27.25"/><polygon class="c" points="378.64 90.01 362.42 112.07 340.73 141.59 324.29 163.94 319.91 169.89 322.47 163.54 331.39 141.33 344.34 109.11 312.98 109.11 326.62 85.93 341.45 60.69 348.72 48.33 370.61 48.33 360.83 65.51 348.76 86.73 346.9 90.01 378.64 90.01"/><polygon class="d" points="71.75 193.97 71.75 173.62 63.33 193.97 62.07 193.97 53.69 173.62 53.69 193.97 50.62 193.97 50.62 169.24 55.03 169.24 62.7 187.85 70.41 169.24 74.82 169.24 74.82 193.97 71.75 193.97"/><path class="d" d="M116.16,193.97v-2.04c-1.48,1.63-3.52,2.48-5.93,2.48-3.04,0-6.26-2.04-6.26-5.93s3.22-5.9,6.26-5.9c2.45,0,4.49,.78,5.93,2.45v-3.22c0-2.41-1.93-3.78-4.52-3.78-2.15,0-3.89,.78-5.49,2.48l-1.3-1.93c1.93-2,4.23-2.96,7.16-2.96,3.78,0,6.93,1.7,6.93,6.04v12.31h-2.78Zm0-3.78v-3.37c-1.08-1.48-2.97-2.22-4.93-2.22-2.59,0-4.41,1.63-4.41,3.93s1.82,3.89,4.41,3.89c1.97,0,3.86-.74,4.93-2.22"/><path class="d" d="M148.97,193.97v-17.9h2.78v2.89c1.45-1.89,3.52-3.27,5.97-3.27v2.85c-.34-.07-.67-.11-1.11-.11-1.7,0-4.04,1.41-4.86,2.85v12.68h-2.78Z"/><polygon class="d" points="197.86 193.97 191.41 185.92 188.44 188.85 188.44 193.97 185.66 193.97 185.66 169.24 188.44 169.24 188.44 185.59 197.86 176.06 201.38 176.06 193.45 184.18 201.42 193.97 197.86 193.97"/><path class="d" d="M228.04,185c0-5.19,3.71-9.38,8.83-9.38,5.41,0,8.6,4.23,8.6,9.6v.7h-14.5c.22,3.37,2.6,6.19,6.45,6.19,2.04,0,4.11-.81,5.52-2.26l1.33,1.82c-1.78,1.78-4.19,2.74-7.12,2.74-5.3,0-9.12-3.82-9.12-9.42m8.79-7.08c-3.82,0-5.71,3.22-5.86,5.97h11.75c-.04-2.67-1.82-5.97-5.9-5.97"/><path class="d" d="M274.97,190.23v-11.71h-2.97v-2.45h2.97v-4.89h2.78v4.89h3.64v2.45h-3.64v11.12c0,1.33,.59,2.3,1.82,2.3,.78,0,1.52-.33,1.89-.74l.82,2.08c-.71,.67-1.71,1.15-3.34,1.15-2.63,0-3.97-1.52-3.97-4.19"/><path class="d" d="M343.92,193.97v-24.73h11.01c4.3,0,6.93,2.6,6.93,6.3,0,3.11-2.07,5.19-4.34,5.67,2.63,.41,4.82,3.11,4.82,6.08,0,3.97-2.63,6.67-7.16,6.67h-11.27Zm14.75-17.98c0-2.22-1.48-4-4.26-4h-7.41v7.97h7.41c2.78,0,4.26-1.71,4.26-3.97m.48,10.97c0-2.26-1.56-4.26-4.6-4.26h-7.56v8.53h7.56c2.89,0,4.6-1.63,4.6-4.26"/><path class="d" d="M390.55,185c0-5.19,3.41-9.38,8.86-9.38s8.86,4.19,8.86,9.38-3.41,9.42-8.86,9.42-8.86-4.23-8.86-9.42m14.79,0c0-3.63-2.11-6.89-5.93-6.89s-5.97,3.26-5.97,6.89,2.15,6.93,5.97,6.93,5.93-3.26,5.93-6.93"/><rect class="d" x="437.26" y="169.24" width="2.78" height="24.73"/><path class="d" d="M470.63,190.23v-11.71h-2.97v-2.45h2.97v-4.89h2.78v4.89h3.64v2.45h-3.64v11.12c0,1.33,.59,2.3,1.82,2.3,.78,0,1.52-.33,1.89-.74l.82,2.08c-.71,.67-1.71,1.15-3.34,1.15-2.63,0-3.97-1.52-3.97-4.19"/></svg>
