<?xml version="1.0" encoding="UTF-8"?><svg id="a" xmlns="http://www.w3.org/2000/svg" viewBox="0 0 600 600"><path d="M210.91,126.47c8.07,7.67,15.45,14.84,23.03,21.81,3.33,3.07,4.7,6.54,4.62,11.08-.21,11.31,.34,22.65-.21,33.94-.32,6.76,1.92,11.4,6.77,15.99,12.15,11.49,23.77,23.54,35.61,35.36,.17,.17,.33,.36,.51,.53,4.15,3.8,7.37,8.21,2.44,13.18-4.77,4.8-8.93,1.25-12.6-2.43-12.17-12.18-24.57-24.15-36.41-36.64-4.45-4.7-8.99-6.66-15.42-6.39-11.05,.48-22.15,0-33.22,.23-5.05,.1-8.98-1.5-12.45-5.15-5.76-6.06-12-11.67-17.6-17.87-3.79-4.2-5.35-3.12-7.51,1.38-18.41,38.33-22.44,77.97-8.1,118.12,21.34,59.74,64.52,94.06,126.99,104.22,16.8,2.73,16.84,2.52,16.84-14.32q0-12.62-14.92-14.6c-70.41-9.36-119.53-76.9-106.39-146.19,.97-5.12,2.73-9.57,8.71-8.65,6.42,.99,6.74,6.1,5.91,11.45-10.21,65.07,32.67,121.74,97.83,129.35q8.87,1.04,8.88-7.85c0-5.41,0-10.82,0-16.24,0-7.07,.67-14.08-4.37-20.31-2.59-3.2-2.71-7.87-2.73-12.07-.08-13.78-.15-27.55,.02-41.33,.09-7.6,2.54-9.97,10.44-10.05,15.25-.16,30.52-.25,45.76,.05,5.45,.11,7.75-1.49,6.92-7.09-.36-2.41-.11-4.91-.03-7.37,.28-8.93,5.29-14.17,14.29-14.35,11.07-.23,22.16-.32,33.22,.04,5.44,.17,5.82-1.39,4.44-6.22-14.12-49.32-66.92-84.1-117.75-77.33-2.44,.32-4.88,.63-7.32,.9-4.91,.53-8.52-1.44-9.06-6.42-.56-5.07,2.97-7.52,7.58-8.25,10.73-1.71,21.55-2.45,32.36-1.19,54.38,6.34,95.02,40.8,109.71,93.25,1.21,4.3,2.98,5.21,7.01,5.26,13.86,.14,17.61,4.2,17.7,18.37q.06,10.26,10.4,10.28c14.03,.01,28.06-.07,42.08,.05,8.25,.07,10.42,2.33,10.47,10.63,.08,13.53,0,27.06,.04,40.59,.01,4.5-.18,9.24-2.88,12.76-4.61,6.02-4.39,12.67-4.36,19.55,.08,21.65,.13,43.3-.02,64.95-.08,11.44-6.39,18.18-17.69,18.18-64.96,0-129.97,1.09-194.88-.74-75.75-2.13-142.47-62.44-155.39-137.02-6.83-39.46-1.16-76.8,17.96-111.98,2.18-4.01,1.81-6.41-1.53-9.34-4.43-3.89-8.49-8.21-12.51-12.53-3.2-3.44-8.42-6.16-6.03-12.25,2.4-6.11,7.96-4.68,12.72-4.74,9.35-.11,18.72-.38,28.05,.09,5.99,.3,8.29-1.29,7.98-7.65-.51-10.31-.16-20.66-.13-30.99,.01-4,.08-8.13,4.61-9.96,4.37-1.77,7.49,.57,10.4,3.54,4.82,4.92,10,9.52,14.53,14.68,3.21,3.65,5.68,3.58,9.94,1.42,58.79-29.81,116.59-27.57,172.55,7.13,26.27,16.29,45.84,39.21,59.43,67.07,1.17,2.4,2.9,4.75,2.22,7.6-.73,3.07-2.65,5.32-5.88,5.95-4.42,.86-6.85-1.71-8.62-5.3-7.12-14.42-16.1-27.52-27.02-39.38-46.75-50.79-125.58-63.48-187.88-28.8Zm174.86,288.46v.04c24.83,0,49.66,0,74.49,0,15.56,0,12.39,1.07,13.24-12.79,.43-7-2.33-8.1-8.39-7.93-12.77,.38-25.57,.25-38.35,0-6.73-.13-9.87-3.72-8.64-8.91,1.26-5.31,5.49-5.76,9.79-5.79,13.03-.08,26.06-.18,39.09,.04,4.55,.08,6.67-.94,6.43-6.06-.4-8.58-.42-17.21,0-25.8,.25-5.17-1.82-5.93-6.39-5.87-17.21,.25-34.42,.2-51.63,.01-4.55-.05-7.26,.5-9.11,5.75-3.12,8.86-10.36,13.45-19.96,13.57-9.25,.12-17.43-5.03-20.42-14.04-1.53-4.63-3.86-5.29-7.95-5.25-17.7,.15-35.41,.29-53.1-.07-5.17-.1-6.02,1.73-5.97,6.29,.21,19.66,.33,39.33-.06,58.98-.12,6.25,1.92,8,7.98,7.94,26.3-.27,52.61-.12,78.92-.12Zm.92-137.14c-29.28,0-58.56,.11-87.83-.1-5.42-.04-7.37,1.5-7.11,7.11,.44,9.57-.04,19.18,.18,28.77,.21,9.3,4.52,13.51,13.71,13.56,17.47,.09,34.94-.05,52.4,.08,3.91,.03,6.41-.15,6.2-5.31-.29-6.88,3.94-10.31,10.64-10.44,7.62-.14,15.25-.12,22.88,.05,6.72,.15,10.82,3.47,10.42,10.52-.25,4.5,1.72,5.21,5.61,5.17,17.96-.16,35.92,.04,53.88-.11,8.37-.07,12.66-4.44,12.81-12.81,.17-9.59-.32-19.2,.18-28.77,.32-6.04-1.32-7.94-7.63-7.86-28.78,.35-57.57,.15-86.36,.14Zm-241.86-121.93l-1.17,2.06c12.81,12.51,25.6,25.05,38.47,37.5,1.18,1.14,2.82,2.49,4.29,2.54,8.25,.24,16.51,.12,24.76,.12l.8-1.78c-13.22-13.07-26.45-26.13-39.66-39.21-1.18-1.17-2.6-1.23-4.09-1.23-7.8,0-15.61,0-23.41,0Zm38.75-37.27l-2.05,.92c0,7.28,.05,14.56-.03,21.84-.02,2.03,.05,3.94,1.57,5.45,13.11,13.07,26.22,26.13,40.55,40.39,0-9.79-.02-18,.02-26.2,0-1.65-.89-2.74-1.93-3.79-12.71-12.87-25.41-25.73-38.12-38.6Zm202.33,130.43c-8.59,0-17.19,.22-25.78-.09-4.4-.16-5.84,1.64-5.12,5.56,.6,3.23-2.56,8.5,4.51,8.47,17.68-.07,35.36-.15,53.03,.05,6.17,.07,4.77-4.09,4.94-7.55,.17-3.58,.36-6.77-5.07-6.54-8.82,.38-17.67,.1-26.51,.1Zm7.53,84.25c.09-2.85,1.39-7.72-6.48-7.19-5.37,.36-8.96,.47-8.19,7.39,.62,5.6-.54,12.4,7.47,12.67,7.22,.24,7.28-5.8,7.2-12.87Z"/><path d="M229.49,239.58c-3.8,11.4-4.58,22.62-2.19,33.89,3.31,15.58,11.69,27.93,24.8,37.02,2.64,1.83,5.48,3.48,6.29,6.89,.68,2.89-.29,5.44-2.6,7.2-3.14,2.39-6.4,1.87-9.57-.2-19.89-13-31.64-31.17-34.5-54.82-1.31-10.83-.64-21.6,3.08-32,1.5-4.2,4.42-6.54,9.08-5.36,3.91,.99,5.15,4.09,5.6,7.37Z"/><path d="M340.19,210.99c.06,2.97-1.22,5.29-3.83,6.6-3.5,1.76-6.66,.7-9.47-1.75-8.3-7.22-17.74-12.04-28.57-14.31-10.62-2.23-20.98-1.37-31.18,1.92-5.16,1.66-9.49,1.33-11.18-4.49-1.58-5.43,1.84-8.03,6.6-9.51,27.24-8.47,51.71-3.36,73.52,14.88,2.09,1.75,4.01,3.66,4.11,6.66Z"/><path d="M450.85,222.58c-.95,4.32-3.23,7.45-7.88,7.01-4.41-.42-7.07-3.34-6.67-7.97,.37-4.2,3.03-6.66,7.28-6.59,4.75,.08,6.66,3.28,7.27,7.55Z"/><path d="M396.23,386.86c-.59,4.46-2.92,7.23-7.61,7.14-4.31-.09-6.86-2.68-6.93-6.89-.07-4.19,2.34-6.96,6.66-7.16,4.6-.21,7.18,2.39,7.88,6.92Z"/></svg>