<?xml version="1.0" encoding="UTF-8"?><svg id="a" xmlns="http://www.w3.org/2000/svg" viewBox="0 0 600 600"><path d="M64.94,418.04c0-17.76,.24-35.52-.11-53.27-.17-8.31,1.3-15.98,6.41-22.44,14.81-18.71,20.14-39.77,17.51-63.36-.98-8.77-.29-17.74-.12-26.62,.18-9.71,.56-18.33-9.02-25.75-8.45-6.55-9.14-17.72-4.23-27.82,1.79-3.69,1.35-5.51-1.5-8.47-13.89-14.41-11.71-31.99,5.31-43.44,3.04-2.04,3.78-3.34,2.82-7.12-3.49-13.68,.49-24.97,13.09-32.06,3.74-2.1,3.38-4.1,2.66-7.34-4.43-19.94,7.72-35.36,28.21-35.45,37.36-.16,74.73,.14,112.09-.18,8.94-.08,16.28,3.37,22.82,8.31,16.9,12.78,35.46,17.62,56.59,15.71,13.97-1.26,28.15-.34,42.24-.18,3.97,.05,6.49-.99,9.08-4.45,8.38-11.21,19.58-14.17,32.49-9,3.41,1.36,5.37,1.91,8.55-1.12,14.68-14,32.56-11.95,43.44,4.92,2.34,3.63,4.04,3.77,7.9,2.87,13.33-3.11,24.37,.76,31.29,13.01,2.01,3.56,3.84,3.64,7.24,2.93,20.63-4.32,35.67,7.76,35.74,28.82,.12,37.05-.12,74.1,.15,111.15,.06,8.51-2.8,15.72-7.67,22.08-13.27,17.31-18.48,36.41-16.34,58.22,1.31,13.34,.33,26.92,.18,40.39-.05,4.49,.77,7.63,4.93,10.7,10.59,7.81,13.76,19.78,8.48,31.82-2.05,4.68-.73,6.61,2.3,9.75,12.5,12.93,10.27,31.95-4.96,41.78-3.88,2.51-5.1,4.24-3.91,9.13,3.15,12.95-.97,23.69-12.79,30.49-3.77,2.17-4,4.22-3.09,8.03,4.5,18.76-7.5,34.88-26.74,35.06-38.58,.37-77.17,.09-115.76,.17-6.8,.01-12.76-2.46-17.82-6.44-18.48-14.54-39.15-20.11-62.5-17.41-8.76,1.01-17.74,.25-26.62,.14-9.93-.12-18.93-.79-26.56,9.14-6.55,8.52-17.81,8.87-27.89,4.13-3.7-1.74-5.5-1.22-8.44,1.63-13.95,13.5-32.3,11.47-42.95-4.78-2.5-3.81-4.26-4.35-8.65-3.3-12.98,3.11-23.71-.96-30.58-12.71-2.14-3.66-3.99-4.14-7.93-3.2-19.24,4.6-34.77-7.66-35.29-27.5-.02-.61,0-1.22,0-1.84,0-18.37,0-36.74,0-55.11ZM362.78,173.37c0-22.32-.14-42.5,.1-62.68,.06-5.21-1.61-6.9-6.84-6.8-15.3,.28-30.68-.84-45.9,.32-19.19,1.46-36.36-2.33-51.52-14.33-9.85-7.8-21-9.67-33.44-9.42-32.74,.64-65.5,.14-98.25,.31-9.48,.05-14.57,4.45-14.58,11.58-.01,7.43,4.8,11.37,14.44,11.49,9.79,.13,19.59,.01,29.38,.06,5.35,.02,10.3,1.41,10.38,7.75,.08,6.83-4.95,8.29-10.78,8.27-15-.05-30-.1-45,.03-8.84,.08-14.85,4.97-14.29,11.92,.66,8.26,6.23,11.4,13.89,11.48,9.79,.1,19.59,.12,29.38,.03,5.63-.05,11.15,.66,11.23,7.62,.08,6.9-5.19,7.94-10.97,7.89-14.69-.13-29.39-.14-44.08-.02-9.54,.08-14.69,4.11-14.93,11.26-.26,7.58,5.18,12.21,14.86,12.29,13.47,.11,26.94-.02,40.4,.06,6.28,.04,14.65-1.48,14.58,7.87-.07,9.24-8.47,7.79-14.74,7.87-10.41,.13-20.81,0-31.22,.06-10.82,.07-16.33,4.16-16.13,11.81,.19,7.39,5.49,11.23,15.73,11.37,2.75,.04,5.51,0,8.26,0,24.79,0,49.59-.01,74.38,.02,4.06,0,8.1,.37,10.14,4.7,2.04,4.32-.14,7.62-2.78,10.81-5.46,6.6-10.78,13.31-16.32,19.84-4.48,5.28-8.16,11.01-1.89,16.81,6.29,5.82,11.63,1.64,16.55-3.28,18.81-18.83,38.46-36.89,56.4-56.52,14.86-16.25,30.51-28.03,53.93-23.77,4,.73,5.75-.36,5.17-5.47-1.21-10.72,3.55-19.09,13.12-24.19,9.53-5.08,18.9-4.1,27.62,2.15,4.16,2.98,8.05,6.33,13.7,10.82Zm64.16,189.28c22.52,0,42.71-.16,62.89,.11,5.43,.07,6.68-2.04,6.59-7-.26-13.77,.98-27.64-.34-41.29-2.19-22.78,3.31-42.79,17.12-60.88,3.09-4.04,6.37-8.38,6.37-13.96,0-38.25,.04-76.5-.08-114.74-.02-7.47-3.89-12.2-11.66-12.58-7.01-.34-11.2,4.71-11.36,13.56-.17,9.48-.06,18.97-.06,28.46,0,5.78-.35,11.93-7.9,12.05-7.56,.12-8.15-5.85-8.12-11.76,.06-14.38,.08-28.77,0-43.15-.06-9.4-4.96-15.43-12.09-15.18-6.9,.24-11.2,5.79-11.34,15.04-.15,10.4,0,20.81-.16,31.21-.07,4.93-2.51,8.49-7.69,8.4-5.05-.09-7.56-3.43-7.63-8.49-.03-1.84,0-3.67,0-5.51-.01-14.08-.02-28.15-.03-42.23,0-7.77-3.11-13.16-11.46-13.74-7.25-.51-11.83,5.05-12.1,14.06-.07,2.45-.02,4.9-.02,7.34,0,13.16,0,26.32-.02,39.47,0,5.36-2.38,9.12-8,9.1-5.2-.01-7.4-3.81-7.7-8.58-.25-3.96-.09-7.95-.11-11.93-.04-10.1,.19-20.21-.2-30.29-.28-7.12-4.31-11.53-11.7-11.34-6.83,.18-10.45,4.42-11.13,11.09-.28,2.73-.17,5.5-.17,8.25,0,25.7,0,51.41-.01,77.11,0,4.61,.34,9.53-4.87,11.88-5.17,2.32-8.7-1.22-12.24-4.09-6.42-5.19-12.8-10.45-19.12-15.76-5.22-4.38-10.93-6.78-16.15-.91-5.33,5.98-1.72,11.11,3.02,15.85,19.47,19.47,38.16,39.78,58.44,58.36,15.64,14.32,26.29,29.5,22.33,51.73-.87,4.86,.64,6.65,6.46,6.22,10.14-.77,18.49,3.57,23.47,12.94,5.13,9.67,3.83,18.93-2.42,27.59-2.98,4.13-6.32,7.99-10.78,13.58Zm-189.3,64.12c0,22.79,.1,43.53-.07,64.27-.04,5.09,2.95,5.14,6.56,5.13,14.08-.04,28.25,1,42.22-.24,22.09-1.96,41.63,2.94,59.27,16.46,4.46,3.42,9.33,7.06,15.63,7.05,37.95-.05,75.9,.06,113.85-.17,8.46-.05,13.52-5.2,12.91-12.2-.7-7.94-5.86-10.84-13.25-10.84-10.1,0-20.2,.02-30.3-.01-5.74-.02-10.82-1.42-10.51-8.45,.27-6.34,4.95-7.6,10.43-7.57,15,.09,29.99,.09,44.99-.01,8.94-.06,14.54-4.67,14.63-11.69,.09-6.96-5.41-11.54-14.62-11.73-9.48-.19-18.98-.12-28.46-.02-5.58,.06-11.27-.51-11.49-7.4-.24-7.58,5.72-8.12,11.64-8.09,15,.08,30,.16,44.99-.06,8.6-.12,13.45-4.7,13.34-11.81-.11-6.96-5.18-11.38-13.63-11.68-3.97-.14-7.96-.03-11.94-.03-11.94-.01-23.87-.02-35.81-.04-5.02,0-8.4-2.39-8.68-7.47-.29-5.27,3.28-7.56,8.08-8.1,2.12-.24,4.28-.16,6.41-.16,10.41-.03,20.81,.04,31.22-.06,11.36-.12,16.44-3.69,16.54-11.4,.1-7.8-5.16-11.62-16.22-11.76-2.75-.03-5.51-.01-8.26-.01-24.18,0-48.36-.02-72.54,0-4.35,0-8.84,.19-11.21-4.42-2.6-5.06,.53-8.68,3.53-12.29,5.28-6.35,10.44-12.81,15.73-19.15,4.22-5.05,7.53-10.6,1.73-16.14-6.21-5.92-11.55-2.08-16.54,2.9-19.69,19.69-40.27,38.55-59.02,59.09-13.96,15.3-28.92,24.92-50.3,21.4-4.31-.71-7.13-.37-6.4,6.08,1.15,10.23-3.62,18.42-12.85,23.44-9.16,4.97-18.31,4.39-26.91-1.33-4.53-3.02-8.63-6.7-14.7-11.48Zm-64.14-189.27c-22.74,0-43.46,.09-64.18-.07-4.9-.04-5.32,2.61-5.29,6.41,.1,12.86-1,25.82,.25,38.56,2.42,24.62-2.94,46.57-18.37,66.06-2.61,3.3-5.04,7.05-5.04,11.61-.02,38.58-.12,77.16,.09,115.73,.04,7.46,4.34,12.24,12.17,11.93,7.42-.29,10.7-5.1,10.75-12.25,.07-10.1,.06-20.21,.1-30.31,.02-5.49,.58-11.21,7.59-11.42,7.48-.22,8.5,5.38,8.46,11.45-.1,14.39-.11,28.78-.01,43.17,.06,9.67,4.66,15.51,11.85,15.45,7.15-.06,11.45-5.77,11.59-15.72,.12-8.88,.07-17.76,.02-26.64-.03-5.74,.02-12.04,7.59-12.23,7.63-.18,7.95,5.98,7.92,11.83-.07,12.86-.02,25.72-.02,38.58,0,13.78,3.19,19.33,11.22,19.6,8.57,.29,12.36-5.65,12.38-19.46,.02-13.47,.06-26.95-.01-40.42-.03-5.57,1.65-10.17,7.88-10.16,6.25,.01,7.89,4.8,7.95,10.23,.04,3.06,.02,6.12,.03,9.19,.03,10.41-.18,20.83,.19,31.23,.25,7.09,4.16,11.61,11.59,11.49,6.88-.11,10.45-4.48,11.25-11.04,.37-3.02,.17-6.12,.17-9.18,0-26.03,0-52.05,0-78.08,0-4.1,.41-8.07,4.69-10.15,4.31-2.1,7.58,.07,10.78,2.72,6.6,5.47,13.37,10.73,19.9,16.29,5.25,4.47,10.89,8.4,16.75,2.05,6.31-6.84,1.2-12.13-3.81-17.16-23.36-23.41-46.54-47-70.01-70.29-6.77-6.72-10.07-14.36-9.69-23.8,.17-4.28-.25-8.6,.1-12.85,.48-5.75-.17-8.39-7.56-7.82-10.12,.78-18.35-4.35-23.01-13.76-4.63-9.34-3.64-18.4,2.61-26.75,3.11-4.15,6.46-8.13,11.17-14.03Zm126.95-30.98c-8.1,1.46-17.43-3.79-25.04,3.86-21.57,21.68-43.32,43.19-65.12,64.64-2.84,2.8-4.15,5.65-4.07,9.64,.21,9.78,.25,19.58-.02,29.36-.13,4.69,1.55,8.18,4.76,11.37,15.16,15.11,31.63,29.19,44.99,45.77,15.34,19.05,33.36,26.48,57.11,23.02,5.49-.8,9.65-2.08,13.56-6.06,14.57-14.84,28.32-30.79,44.48-43.68,19.1-15.24,26.85-33.15,23.24-57-.82-5.43-1.9-9.73-5.88-13.67-17.61-17.42-35.44-34.66-52.27-52.82-9.92-10.72-19.79-19.08-35.74-14.43Z"/></svg>