<?xml version="1.0" encoding="UTF-8"?><svg id="a" xmlns="http://www.w3.org/2000/svg" viewBox="0 0 600 600"><path d="M299.38,554.17c-140.07-.17-253.84-114.52-253.64-254.93,.2-140.3,114.81-253.62,256.21-253.33,138.52,.29,252.55,115.35,252.17,254.44-.39,140.41-114.38,253.99-254.74,253.82Zm.57-138.8c42.02,0,84.03,.02,126.05,0,25.96-.02,37.55-11.52,37.58-37.45,.06-52.59,.05-105.18,0-157.78-.02-23.15-12.3-35.39-35.63-35.41-85.35-.05-170.71-.05-256.06-.02-23.07,0-35.54,12.33-35.59,35.49-.12,53.25-.12,106.51,0,159.76,.06,23.24,12.38,35.38,35.62,35.42,42.68,.07,85.35,.02,128.03,0Z"/><path d="M437.3,226.15c0,52.05-.09,103.29,.08,154.53,.03,9.14-5.74,8.74-11.99,8.73-63.18-.04-126.36-.02-189.54-.02-21.17,0-42.34-.08-63.51,.04-5.67,.03-9.79-1.05-9.78-7.97,.05-51.57,.03-103.14,.03-154.77,4.48-.79,6.28,2.58,8.66,4.45,38.92,30.74,77.73,61.63,116.64,92.39,10.69,8.45,13.63,8.4,24.26-.02,38.62-30.59,77.17-61.26,115.8-91.83,2.48-1.97,4.49-4.84,9.35-5.53Z"/><path d="M411.04,211.55c-34.19,27.12-66.76,53.04-99.43,78.83-13.49,10.65-9.03,11.36-23.31,.08-32.67-25.81-65.22-51.76-99.4-78.91h222.13Z"/></svg>