<?xml version="1.0" encoding="UTF-8"?><svg id="a" xmlns="http://www.w3.org/2000/svg" viewBox="0 0 600 600"><path d="M392.35,470.46c0-29.54,.33-59.09-.2-88.62-.15-8.57,2.75-10.69,10.72-10.35,13.19,.56,26.42-.09,39.62,.26,5.52,.15,7.93-1.39,8.59-7.2,2-17.59,4.41-35.14,7.03-52.65,.91-6.05-1.73-7.06-6.84-7.01-16.68,.17-33.38-.23-50.05,.21-6.78,.18-9.29-1.82-9-8.77,.48-11.45-.09-22.94,.22-34.4,.62-22.87,8.84-31.1,31.86-31.95,9.72-.36,19.47-.33,29.19-.05,5.24,.15,7.38-1.33,7.25-6.98-.34-15.28-.29-30.59-.01-45.87,.09-4.83-1.63-7.18-6.29-7.37-21.85-.92-43.79-3.98-65.53,.06-39.74,7.38-63,36.01-65.18,80.01-.74,14.91-.66,29.9-.17,44.82,.26,7.87-1.6,11.11-10.2,10.61-12.82-.75-25.72,.06-38.57-.31-6.11-.17-8.71,1.4-8.56,8.06,.4,17.02,.32,34.06,.02,51.09-.1,5.79,1.66,7.97,7.66,7.82,13.9-.35,27.81,.12,41.71-.2,5.81-.13,7.88,1.69,7.86,7.68-.17,64.3-.25,128.6,.09,192.89,.04,8.38-4.39,7.76-9.8,7.58-80.48-2.7-147.59-34.16-199.5-95.59C-10.95,335.98,61.18,106.15,248.42,55.32c155.26-42.14,311.77,60.68,334.95,220.06,18.45,126.82-59.01,251.37-180.81,291.26-8.48,2.78-10.48,1.11-10.36-7.57,.41-29.54,.16-59.08,.16-88.62Z"/></svg>