<?xml version="1.0" encoding="UTF-8"?><svg id="a" xmlns="http://www.w3.org/2000/svg" viewBox="0 0 600 600"><path d="M314.46,549.87c-136.81,.7-247.24-98.73-260.09-226.59C41.95,199.75,116.54,88.27,235.27,52.7c8.76-2.62,16.98-3.5,23.03,4.64,6.45,8.67,2.66,16.26-3.1,23.94-83.44,111.27-22.76,270.75,113.65,297.98,55.91,11.16,106.85-1.27,152.28-35.88,2.85-2.17,5.7-4.43,8.82-6.15,6.21-3.42,12.66-3.49,18.43,.83,5.84,4.37,7.28,10.44,5.47,17.48-18.74,72.76-60.69,127.77-126.62,163.9-37.6,20.61-78.16,30.7-112.76,30.43Z"/></svg>
