<?xml version="1.0" encoding="UTF-8"?><svg id="a" xmlns="http://www.w3.org/2000/svg" viewBox="0 0 600 600"><path d="M299.53,185.79c-66.04,0-132.08,.08-198.11-.05-21.8-.04-35.7-19.36-28.32-38.81,4.28-11.29,14.62-18.21,27.99-18.26,27.07-.11,54.14-.04,81.21-.04,104.71,0,209.42,.04,314.13-.06,10.45-.01,19.49,2.64,25.93,11.16,7.04,9.33,8.33,19.6,2.98,30.15-5.49,10.84-14.7,15.9-26.79,15.9-45.81,0-91.62,.01-137.43,.01-20.53,0-41.05,0-61.58,0Z"/><path d="M298.9,328.55c-65.74,0-131.48,.03-197.22-.02-14.46-.01-24.65-7.02-28.88-19.41-3.9-11.42-.42-23.6,8.99-31.32,6.32-5.18,13.72-6.47,21.71-6.46,81.21,.09,162.42,.05,243.63,.05,50.57,0,101.14-.12,151.71,.08,21.47,.09,35.58,20.41,27.4,39.34-5.42,12.56-15.63,17.82-29.22,17.79-66.04-.12-132.08-.06-198.11-.05Z"/><path d="M300.71,414.17c65.74,0,131.48-.07,197.22,.04,21.83,.04,35.94,19.26,28.67,38.55-4.19,11.14-14.34,18.3-26.9,18.5-13.09,.21-26.18,.06-39.26,.06-119.28,0-238.57,.03-357.85-.02-22.66,0-36.88-18.71-29.56-38.58,4.38-11.88,14.84-18.54,29.58-18.54,66.04-.03,132.08-.02,198.11-.01Z"/></svg>
