<?xml version="1.0" encoding="UTF-8"?><svg id="a" xmlns="http://www.w3.org/2000/svg" viewBox="0 0 198.43 198.43"><defs><style>.b{fill:#8dc63f;}.c{fill:#ed1c25;}</style></defs><polygon class="c" points="13.94 48.22 13.94 150.2 37.37 150.2 37.37 72.31 13.94 48.22"/><polygon class="c" points="67.24 138.53 67.24 138.59 67.21 138.56 67.24 138.53"/><polygon class="c" points="92.35 79.25 92.35 112.91 66.73 138.53 66.7 138.56 66.67 138.53 41.05 112.91 41.05 79.25 66.7 104.3 92.35 79.25"/><polygon class="c" points="67.21 138.56 67.18 138.59 67.18 138.53 67.21 138.56"/><path class="b" d="M165.59,97.61c9.64-1.99,17.58-10.55,17.58-23.39,0-13.61-9.94-26-29.35-26h-30.1v18.66h25.36c7.34,0,11.92,4.74,11.92,11.16s-4.58,11.01-11.92,11.01h-25.36v18.65h26.13c8.56,0,13.15,5.5,13.15,11.93,0,7.34-4.9,11.78-13.15,11.78h-26.13v18.81h31.78c19.42,0,29.66-12.23,29.66-27.53,0-12.84-8.72-23.39-19.57-25.07"/><polygon class="c" points="119.34 48.22 119.34 150.21 95.91 150.21 95.91 72.31 119.34 48.22"/></svg>
