<?xml version="1.0" encoding="UTF-8"?><svg id="a" xmlns="http://www.w3.org/2000/svg" viewBox="0 0 600 600"><path d="M423.27,301.48c.19,68.2-55.24,124.15-123.45,124.6-68.8,.45-125.28-54.94-125.66-123.23-.38-69.74,54.76-125.38,124.72-125.84,68.2-.45,124.19,55.58,124.39,124.48Z"/><path d="M338.76,156.98c-27.35-5.96-52.88-6.6-80.04,.44,5.94-13.01,11.07-24.29,16.22-35.55,4.16-9.09,8.05-18.33,12.62-27.21,4.58-8.88,16.68-10.27,21.02-1.78,10.45,20.43,19.64,41.51,30.17,64.1Z"/><path d="M258.78,445.92c26.9,6.33,52.45,6.61,77.81,.37,1.83,3.26-.49,5.23-1.41,7.28-7.41,16.46-15.05,32.82-22.54,49.25-2.82,6.18-5.44,12.61-13.68,12.69-8.65,.09-11.36-6.56-14.29-13.04-8.33-18.41-16.8-36.75-25.89-56.56Z"/><path d="M154.36,341.51c-22.61-10.37-42.81-19.51-62.89-28.92-4.59-2.15-7.01-6.29-6.82-11.54,.19-5.25,2.99-8.9,7.63-11.04,18.68-8.6,37.38-17.13,56.12-25.61,1.91-.86,5.81-3.33,4.77,1.63-5.15,24.52-5.15,48.96,1.19,75.47Z"/><path d="M443.3,261.63c22.33,10.24,42.67,19.14,62.59,28.89,9.65,4.72,9.61,17.28-.03,22.01-18.95,9.3-38.33,17.73-57.5,26.6-3.34,1.55-4.99,.77-4.14-2.9,5.65-24.21,4.77-48.42-.92-74.6Z"/><path d="M428.06,226.49c-13.45-22.47-31.36-40.7-54.02-54.1,1.41-3.44,4.59-3.39,6.93-4.29,17.63-6.72,35.37-13.15,53.01-19.82,5.89-2.22,11.45-2.73,16.19,2.13,4.75,4.88,3.89,10.41,1.67,16.26-6.69,17.64-13.09,35.39-19.75,53.04-.84,2.23-.96,5.02-4.04,6.77Z"/><path d="M225.44,431.79c-23.29,8.55-44.27,16.6-65.51,23.89-10.05,3.45-18.9-5.48-15.41-15.58,7.33-21.24,15.45-42.2,23.87-64.99,14.46,23.83,32.38,42.31,57.05,56.68Z"/><path d="M428.99,374.83c8.62,23.42,16.71,44.38,23.98,65.62,3.32,9.68-5.38,18.56-14.99,15.29-21.52-7.31-42.74-15.47-65.66-23.86,23.88-14.53,42.34-32.49,56.66-57.05Z"/><path d="M225.37,171.24c-24.56,14.66-42.74,32.72-56.82,56.86-6.51-17.38-12.55-33.44-18.53-49.52-1.94-5.21-4.04-10.39-5.56-15.73-2.83-9.93,5.2-18.82,14.81-15.58,21.54,7.26,42.78,15.44,66.1,23.96Z"/></svg>
