<?xml version="1.0" encoding="UTF-8"?><svg id="a" xmlns="http://www.w3.org/2000/svg" viewBox="0 0 600 600"><path d="M243.19,58.31c18.89,0,37.78-.17,56.66,.04,37.64,.42,67.99,27.88,70.17,65.27,1.88,32.33,1.95,64.84-.08,97.18-2.24,35.68-32.52,63.33-68.42,64.07-14.79,.3-29.6,.37-44.38-.05-5.92-.17-9.93,1.77-13.96,5.91-14.26,14.66-28.88,28.98-43.37,43.42-5.06,5.05-10.31,9.5-18.24,6.35-8.26-3.28-9.32-10.17-9.25-17.82,.09-10.7-.25-21.4,.01-32.1,.12-4.77-1.32-7.08-6.07-8.79-33.67-12.11-50.32-35.65-50.62-71.4-.21-26.12-.31-52.24,.01-78.36,.54-44.2,30.49-73.61,74.65-73.73,17.63-.04,35.26,0,52.89,0Zm56.58,70.08c-.62-5.35-3.19-9.72-8.64-12.1-6.36-2.78-11.71-.79-16.29,3.75-13.83,13.71-27.66,27.41-41.28,41.33-3.31,3.39-5.62,4.1-9.01,.21-3.91-4.49-8.23-8.65-12.58-12.73-7.46-6.99-15.67-7.25-21.58-.92-5.64,6.04-5.18,13.8,1.69,20.9,8.29,8.58,16.74,17.02,25.34,25.3,8.18,7.88,14.93,8,22.93,.12,18.13-17.85,36.02-35.95,54.04-53.91,3.25-3.24,5.36-6.91,5.37-11.98Z"/><path d="M469.03,413.66c8.15,.44,15.31,.53,22.41,1.25,27.17,2.76,49.05,25.48,50,52.76,.68,19.47,.35,38.99,.13,58.48-.11,10.32-5.47,15.53-16,15.56-45.93,.13-91.85,.13-137.78,0-10.91-.03-16.04-5.34-16.15-16.39-.17-17.61-.16-35.22-.03-52.83,.24-32.52,22.38-55.98,54.77-58.04,5.55-.35,11.14-.05,18.77-.05-27-17.09-35.37-33.64-29.08-54.71,5.45-18.26,21.9-30.38,40.96-30.18,18.88,.2,35.55,12.94,40.48,30.94,5.76,21.05-2.98,37.82-28.47,53.19Z"/><path d="M157.14,414.71c6.55,0,13.14-.49,19.63,.09,28.62,2.55,50.6,25.92,51.2,54.63,.39,18.55,.2,37.11,.07,55.67-.08,11.41-5.32,16.62-16.87,16.65-45.3,.09-90.61,.09-135.91,.01-12.05-.02-17.12-5.16-17.21-17.29-.12-17.3-.12-34.6,0-51.89,.22-32.51,22.35-56,54.72-58.06,5.55-.35,11.13-.05,16.93-.97-10.24-5.61-19.21-11.96-24.37-22.45-5.08-10.33-5.98-21.06-2.55-32.02,5.7-18.24,22.41-30.07,41.39-29.53,18.87,.54,35.47,13.63,40.03,31.57,5.35,21.02-3.79,38.16-27.06,53.6Z"/><path d="M388.73,86.68c14.84,.27,27.38-1.06,39.86,1.69,30.05,6.64,53.27,32.43,54.79,63.05,1.11,22.28,1.5,44.73,.14,66.97-1.89,30.97-18.72,52.09-47.9,62.55-6.65,2.38-8.61,5.42-8.34,12.02,.44,10.99,.03,22.02,0,33.03-.02,6.57-2.56,11.57-8.76,14.33-6.42,2.86-11.73,.6-16.28-3.89-13.23-13.03-26.28-26.23-39.52-39.25-2.87-2.82-3.14-4.64,.24-7.46,26.89-22.49,37.31-51.88,36.05-86.26-.49-13.51,.08-27.06-.12-40.59-.36-25.34,2.9-51.1-10.16-76.19Z"/></svg>
