<?xml version="1.0" encoding="UTF-8"?><svg id="a" xmlns="http://www.w3.org/2000/svg" viewBox="0 0 600 600"><path d="M372.24,163.78c-8.33,8.03-16.61,15.85-24.67,23.88-2.88,2.87-4.94,.56-7.27-.46-50.59-22.13-97.84-16.4-140.43,18.69-42.08,34.67-56.41,94.11-36.44,145.15,20.07,51.29,70.55,84.52,125.11,82.34,93.99-3.74,152.76-100.86,112.19-185.67-2.38-4.96-2.03-7.82,1.97-11.4,6.12-5.47,11.87-11.38,17.45-17.4,3.35-3.62,4.89-3.26,7.38,1.01,15.31,26.21,23.06,54.51,22.7,84.74-.94,79.6-54.37,144.81-132.16,161.96-90.7,20-183.53-43.38-197.61-134.92-14.01-91.03,42.66-172.58,132.64-190.88,39.23-7.98,89.63,1.5,119.14,22.97Z"/><path d="M322.44,212.7c-9.69,9.65-18.77,18.77-27.97,27.77-2.69,2.63-6.21,1.01-9.3,.98-27.85-.27-52.04,16.94-60.62,43.29-8.44,25.92,.68,54.42,23.22,70.12,20.79,14.48,43.28,16.27,65.59,4.39,22.55-12,33.98-31.65,33.06-57.43-.24-6.66,1.45-11.19,6.25-15.49,6.11-5.48,11.9-11.34,17.41-17.43,4.22-4.66,5.78-3.19,7.61,1.86,19.57,53.99-12.46,114.63-68.35,129.18-54.99,14.32-110.43-20.14-122.41-76.08-11.56-53.96,25.48-108.28,80.49-117.63,18.47-3.14,36.57-1.34,55.02,6.47Z"/><path d="M431.08,120.79c1.36,9.84,2.79,17.63,3.39,25.47,.39,5.05,2.57,6.81,7.34,7.25,7.86,.72,15.67,1.98,26.02,3.34-9.95,9.6-18.48,17.8-26.97,26.05-3.75,3.64-7.68,7.16-11.02,11.15-3.12,3.74-6.53,5.04-11.12,3.58-6.43-2.05-10.96,.22-15.71,5.05-26.52,27-53.35,53.69-80.28,80.29-4.99,4.93-7.68,9.11-6.28,17.12,3.04,17.32-9.03,32.8-26.03,35.98-16.98,3.17-33.88-7.31-38.08-23.62-4.34-16.88,4.57-33.87,20.83-39.68,5.77-2.07,11.87-2.92,17.61-1.06,5.28,1.71,8.11-.35,11.51-3.77,28.24-28.45,56.54-56.85,85.1-84.99,3.87-3.82,4.43-7.65,3.11-12.06-1.74-5.8,.26-9.7,4.43-13.74,11.78-11.41,23.16-23.23,36.16-36.37Z"/></svg>
