<?xml version="1.0" encoding="UTF-8"?><svg id="a" xmlns="http://www.w3.org/2000/svg" viewBox="0 0 600 600"><path d="M369.06,367.99c17.65,0,34.53,0,51.4,0,18.16,0,35.99-2.18,53.38-7.67,23.45-7.4,44.19-19.43,62.37-35.94,1.14-1.03,2.24-2.1,3.41-3.09,.23-.19,.68-.12,1.59-.25v5.6c0,47.85,.03,95.71,0,143.56-.03,40.42-29.43,69.89-69.78,69.91-113.39,.03-226.78,.03-340.17,0-40.34-.01-69.76-29.52-69.79-69.9-.03-47.85,0-95.71,0-143.56v-6.51c1.49,1.15,2.23,1.63,2.87,2.23,32.86,30.65,71.89,45.51,116.68,45.63,17.26,.05,34.52,0,52.14,0,.37,4.2,.55,7.99,1.05,11.73,2.77,20.82,19.68,36.54,40.59,37.1,16.71,.45,33.44,.31,50.16,.14,25.21-.25,43.04-17.71,44.1-42.92,.07-1.72,0-3.44,0-6.05Z"/><path d="M369.08,330.6c0-9.94,.15-19.69-.03-29.44-.36-19.88-11.65-35.93-29.62-41.62-4.67-1.48-9.78-2.07-14.71-2.16-15.56-.27-31.13-.21-46.69-.07-26.01,.24-44.06,18.28-44.43,44.33-.13,9.57-.02,19.14-.02,29-2.04,.18-3.53,.44-5.01,.42-20.74-.22-41.63,.99-62.21-1.02-47.44-4.64-81.67-29.65-103.7-71.7-.44-.84-1.07-1.76-1.06-2.64,.35-19.27-3-39,5.99-57.29,12.61-25.65,33.51-38.87,61.96-39.65,17.28-.47,34.59-.1,51.88-.13,.75,0,1.5-.21,3.12-.44,0-9.49,.12-19.03-.03-28.56-.19-11.37,1.95-22.24,7.36-32.21,12.66-23.34,32.36-36.37,58.95-36.89,33.62-.66,67.26-.38,100.88-.1,35.75,.29,65.17,29.33,66.24,65.09,.32,10.72,.05,21.46,.05,32.81,2.71,.13,4.93,.3,7.14,.33,18.82,.24,37.73-.63,56.44,.93,32.69,2.72,58.71,31.55,59.53,64.33,.24,9.6,.19,19.22-.02,28.82-.05,2.37-.81,4.93-1.94,7.03-24.16,44.8-61.62,68.87-112.53,71.14-17.84,.79-35.74,.17-53.61,.16-1.11,0-2.22-.25-3.96-.46ZM221.97,158.29h159.14c0-10.88,.3-21.41-.07-31.91-.56-15.92-13.43-28.87-29.36-29-33.6-.28-67.2-.26-100.8,0-14.02,.11-27.16,10.83-28.65,24.54-1.3,11.89-.27,24.04-.27,36.38Z"/><path d="M332.19,337.13c0,11.33,.05,22.66-.02,33.99-.04,7.11-1.83,8.94-8.79,8.96-14.79,.05-29.57,.06-44.36,0-6.63-.03-8.49-1.9-8.5-8.65-.06-22.85-.05-45.71,0-68.56,.02-6.77,1.86-8.63,8.49-8.66,14.98-.06,29.96-.07,44.94,0,6.25,.03,8.17,1.97,8.22,8.35,.09,11.52,.03,23.04,.03,34.57Z"/></svg>
