<?xml version="1.0" encoding="UTF-8"?><svg id="a" xmlns="http://www.w3.org/2000/svg" viewBox="0 0 600 600"><path d="M503.24,547.89c-13.31,.6-26.26-6.2-37.71-17.73-51.07-51.44-102.43-102.59-153.68-153.84q-9.29-9.29-18.24-.29c-52.18,52.17-104.48,104.23-156.49,156.57-15.32,15.42-33.7,18.48-53.27,13.13-33.61-9.2-42.53-51.22-16.74-77.27,33.53-33.88,67.41-67.42,101.13-101.11,20.33-20.31,40.5-40.77,61.09-60.81,5.12-4.98,5.37-7.67,.04-12.97-53.79-53.33-107.37-106.87-160.76-160.6-25.49-25.65-14.56-68.45,20.03-78.64,18.47-5.44,34.68-.67,48.39,12.98,52.51,52.3,105.25,104.36,157.49,156.94,6.94,6.98,10.25,7.06,17.22,0,51.6-52.28,103.7-104.08,155.66-156,14.24-14.23,31.26-18.96,50.25-12.38,18.57,6.43,29.31,20.27,31.64,39.86,1.76,14.77-2.94,27.67-13.54,38.26-52.2,52.15-104.39,104.3-156.62,156.43-8.84,8.82-8.92,8.76-.01,17.61,52.8,52.48,105.56,104.99,158.43,157.39,14.14,14.01,20.07,30.28,14.51,49.81-5.8,20.4-24.38,33.54-48.82,32.68Z"/></svg>
