<?xml version="1.0" encoding="UTF-8"?><svg id="a" xmlns="http://www.w3.org/2000/svg" viewBox="0 0 600 600"><path d="M299.89,52.12c136.94-.03,248.17,111.28,248.09,248.26-.08,136.33-111.39,247.48-247.87,247.51-136.93,.03-248.17-111.28-248.09-248.26,.08-136.33,111.39-247.48,247.87-247.51Zm-37.62,346.82c8.85,.46,15.15-4.23,21.06-10.12,32.45-32.35,64.99-64.61,97.52-96.89,19.01-18.87,38.06-37.69,57.05-56.59,7.57-7.53,9.88-16.68,6.42-26.67-3.2-9.23-10.2-14.78-19.91-16.35-9.89-1.6-17.27,3.1-23.99,9.83-43.99,44.1-88.17,88.01-132,132.26-5.57,5.62-8.56,5.75-14.39,.15-19.08-18.33-38.75-36.05-58.47-53.69-11.19-10.01-25.41-9.65-34.75,.13-9.39,9.84-9.01,25.46,1.87,35.53,27.46,25.44,55.28,50.49,83.01,75.64,4.66,4.23,10.03,7.04,16.6,6.76Z"/></svg>
