<?xml version="1.0" encoding="UTF-8"?><svg id="a" xmlns="http://www.w3.org/2000/svg" viewBox="0 0 600 600"><path d="M300.68,44.55c140.99,.23,254.95,114.86,254.73,256.22-.22,140.78-115.29,254.96-256.48,254.5-140.89-.46-254.56-115.23-254.28-256.75,.27-140.11,115.29-254.2,256.04-253.97Zm144.99,256h-.1c0-21.6,.73-43.22-.15-64.78-1.95-48.11-33.18-79.4-80.93-81.31-42.85-1.71-85.74-1.84-128.59,.02-48.19,2.09-79.26,33.04-81.3,80.99-1.84,43.17-1.86,86.39,.04,129.56,1.95,44.26,27.85,74.11,72.07,78.87,48.26,5.19,97.09,5.03,145.32,.25,46.61-4.62,72.23-35.66,73.53-82.8,.56-20.25,.09-40.53,.09-60.8Z"/><path d="M300.06,419.37c-23.88-.28-47.87,2.02-71.66-1.43-26.59-3.85-42.26-19.49-46.35-45.87-2.97-19.16-2.05-38.46-1.91-57.7,.2-28.87-1.93-57.84,2.01-86.58,3.61-26.34,19.59-42.68,46.25-45.76,37.72-4.36,75.66-1.6,113.51-1.95,10.62-.1,21.22,.19,31.77,1.97,24.51,4.14,40.29,19.98,44.26,44.66,2.87,17.83,1.97,35.79,2.03,53.71,.08,26.57,.43,53.18-.64,79.72-1.54,38.35-21.08,57.58-59.47,59.09-19.9,.78-39.86,.14-59.8,.14Zm.21-194.84c-41.46-.06-75.56,33.93-75.62,75.39-.06,40.82,33.72,74.95,74.68,75.43,41.23,.48,75.68-33.46,76.09-74.98,.4-41.25-33.81-75.78-75.14-75.84Zm95.5-2.74c.14-9.65-7.81-17.63-17.52-17.59-9.72,.04-17.58,8.05-17.44,17.75,.13,9.22,7.79,16.89,17.13,17.17,9.66,.29,17.7-7.52,17.84-17.33Z"/><path d="M348.79,299.55c.29,27.07-21.05,48.72-48.38,49.08-27,.35-48.72-21.04-49.11-48.37-.38-26.91,21.34-48.97,48.39-49.15,27.11-.18,48.81,21.23,49.1,48.44Z"/></svg>
