<?xml version="1.0" encoding="UTF-8"?><svg id="a" xmlns="http://www.w3.org/2000/svg" viewBox="0 0 600 600"><path d="M299.28,554.39c-139.92-.13-253.84-114.24-253.82-254.25,.02-140.97,114.27-254.7,255.59-254.44,140.2,.26,253.54,114.66,253.36,255.74-.18,139.51-114.74,253.08-255.13,252.96Zm22.79-285.81c0-7.16-.33-12.32,.09-17.43,.47-5.81-2.01-7.32-7.44-7.22-15.89,.27-31.79,.24-47.69,.02-5.09-.07-6.81,1.54-6.79,6.82,.16,57.26,.18,114.53-.08,171.79-.03,6.51,2.51,7.74,8.18,7.64,14.9-.26,29.82-.51,44.7,.1,7.85,.32,9.26-2.77,9.18-9.8-.33-30.78-.21-61.57-.07-92.35,.02-4.92,.43-9.97,1.62-14.72,3.79-15.04,17.58-25.33,32.94-25.12,15.56,.22,25.32,9.06,29.13,25.88,1.41,6.22,1.62,12.44,1.62,18.73,0,29.46,.21,58.92-.14,88.38-.08,6.95,2.02,9.16,8.94,8.95,14.89-.45,29.81-.42,44.7,0,6.52,.18,8.51-1.96,8.43-8.46-.32-25.48-.02-50.97-.17-76.46-.09-16.19,.84-32.4-2.26-48.5-10.11-52.56-71.75-76.2-111.27-42.47-4.39,3.75-8.05,8.36-13.62,14.22Zm-157.82,68.33c0,28.1,.21,56.2-.15,84.3-.09,6.87,1.81,9.26,8.85,9.05,15.2-.47,30.43-.29,45.64-.08,5.4,.08,7.62-1.6,7.61-7.35-.15-57.19-.16-114.38,.03-171.57,.02-5.76-2.01-7.43-7.47-7.34-14.88,.25-29.78,.48-44.64-.07-7.62-.28-10.2,1.71-10.05,9.76,.51,27.76,.2,55.53,.19,83.3Zm30.3-118.5c20.48,.17,35.57-13.43,35.54-32.01-.02-18.65-14.11-31.91-34.21-32.21-20.64-.31-35.31,12.95-35.29,31.9,.02,18.78,14.07,32.16,33.96,32.32Z"/></svg>