<?xml version="1.0" encoding="UTF-8"?><svg id="a" xmlns="http://www.w3.org/2000/svg" viewBox="0 0 600 600"><path d="M486.43,244.89c.24,32.39-8.59,64-21.43,94.63-24.54,58.53-59.04,111.15-97,161.65-16.26,21.63-33.09,42.84-51.1,63.06-9.21,10.34-19.24,11.08-27.91,.89-60.72-71.34-116.64-145.92-152.04-233.69-17.15-42.52-23.62-85.9-11.47-131.48C158,77.98,307.95,24.69,409.46,99.61c48.49,35.79,73.6,84.12,76.97,145.28Zm-183.54,95.86c50.87-.15,92.05-41.27,92.04-91.91,0-51-41.81-92.74-92.7-92.55-50.86,.19-92.62,42.45-92.11,93.19,.52,50.75,41.85,91.42,92.76,91.27Z"/></svg>