<?xml version="1.0" encoding="UTF-8"?><svg id="a" xmlns="http://www.w3.org/2000/svg" viewBox="0 0 171.01 71.66"><defs><style>.b{fill:#8dc63f;}.c{fill:#ed1c25;}.d{fill:#231f20;}</style></defs><polygon class="c" points="16.8 8.92 16.8 53.2 26.97 53.2 26.97 19.38 16.8 8.92"/><polygon class="c" points="28.57 22.39 28.57 37.01 39.72 48.16 39.72 33.28 28.57 22.39"/><polygon class="c" points="50.84 22.39 50.84 37.01 39.69 48.16 39.69 33.28 50.84 22.39"/><path class="b" d="M81.91,30.37c4.18-.86,7.63-4.58,7.63-10.16,0-5.91-4.31-11.29-12.74-11.29h-13.07v8.1h11.01c3.19,0,5.18,2.06,5.18,4.85s-1.99,4.78-5.18,4.78h-11.01v8.1h11.34c3.72,0,5.71,2.39,5.71,5.18,0,3.19-2.13,5.11-5.71,5.11h-11.34v8.17h13.8c8.43,0,12.88-5.31,12.88-11.95,0-5.58-3.79-10.16-8.5-10.89"/><polygon class="c" points="62.34 8.92 62.34 53.21 52.16 53.21 52.16 19.38 62.34 8.92"/><path class="b" d="M106.12,45.53l-2.87,7.14c-7.77-1.9-12.31-8.59-12.31-16.33,0-9.1,6.37-16.8,16.93-16.8,.5,0,1,.02,1.48,.05l-4.77,8.12c-3.16,1.39-4.88,4.82-4.88,8.63,0,4.45,2.28,8.34,6.42,9.18"/><polygon class="b" points="123.35 53.2 123.35 15.62 131.78 8.92 131.78 53.2 123.35 53.2"/><path class="b" d="M138.08,44.44V27.71h-5.31v-7.37h5.31v-4.72l8.5-6.7v11.42h6.51v7.37h-6.51v14.47c0,1.99,1.06,3.52,2.92,3.52,1.26,0,2.46-.46,2.92-.93l1.79,6.37c-1.26,1.13-3.52,2.06-7.04,2.06-5.91,0-9.09-3.05-9.09-8.76"/><polygon class="c" points="122.28 29.16 117.07 36.26 110.09 45.75 104.81 52.94 103.4 54.85 104.22 52.81 107.09 45.67 111.25 35.31 101.17 35.31 105.55 27.85 110.32 19.74 112.66 15.76 119.7 15.76 116.56 21.29 112.68 28.11 112.08 29.16 122.28 29.16"/><polygon class="d" points="23.59 62.6 23.59 56.05 20.89 62.6 20.48 62.6 17.79 56.05 17.79 62.6 16.8 62.6 16.8 54.64 18.21 54.64 20.68 60.63 23.16 54.64 24.58 54.64 24.58 62.6 23.59 62.6"/><path class="d" d="M37.87,62.6v-.66c-.48,.52-1.13,.8-1.91,.8-.98,0-2.01-.66-2.01-1.91s1.04-1.9,2.01-1.9c.79,0,1.44,.25,1.91,.79v-1.04c0-.78-.62-1.22-1.45-1.22-.69,0-1.25,.25-1.76,.8l-.42-.62c.62-.64,1.36-.95,2.3-.95,1.22,0,2.23,.55,2.23,1.94v3.96h-.89Zm0-1.22v-1.08c-.35-.48-.95-.71-1.59-.71-.83,0-1.42,.52-1.42,1.26s.58,1.25,1.42,1.25c.63,0,1.24-.24,1.59-.72"/><path class="d" d="M48.42,62.6v-5.76h.89v.93c.46-.61,1.13-1.05,1.92-1.05v.92c-.11-.02-.21-.04-.36-.04-.55,0-1.3,.45-1.56,.92v4.08h-.89Z"/><polygon class="d" points="64.15 62.6 62.07 60.01 61.12 60.95 61.12 62.6 60.23 62.6 60.23 54.64 61.12 54.64 61.12 59.9 64.15 56.84 65.28 56.84 62.73 59.45 65.29 62.6 64.15 62.6"/><path class="d" d="M73.85,59.71c0-1.67,1.19-3.02,2.84-3.02,1.74,0,2.77,1.36,2.77,3.09v.23h-4.66c.07,1.08,.83,1.99,2.07,1.99,.65,0,1.32-.26,1.78-.73l.43,.58c-.57,.57-1.35,.88-2.29,.88-1.71,0-2.93-1.23-2.93-3.03m2.83-2.28c-1.23,0-1.84,1.04-1.88,1.92h3.78c-.01-.86-.59-1.92-1.9-1.92"/><path class="d" d="M88.94,61.39v-3.77h-.95v-.79h.95v-1.57h.89v1.57h1.17v.79h-1.17v3.58c0,.43,.19,.74,.58,.74,.25,0,.49-.11,.61-.24l.26,.67c-.23,.21-.55,.37-1.07,.37-.85,0-1.28-.49-1.28-1.35"/><path class="d" d="M111.12,62.6v-7.95h3.54c1.38,0,2.23,.83,2.23,2.03,0,1-.67,1.67-1.4,1.82,.85,.13,1.55,1,1.55,1.96,0,1.28-.85,2.15-2.3,2.15h-3.62Zm4.74-5.78c0-.71-.48-1.29-1.37-1.29h-2.38v2.56h2.38c.89,0,1.37-.55,1.37-1.28m.16,3.53c0-.73-.5-1.37-1.48-1.37h-2.43v2.74h2.43c.93,0,1.48-.52,1.48-1.37"/><path class="d" d="M126.12,59.71c0-1.67,1.1-3.02,2.85-3.02s2.85,1.35,2.85,3.02-1.1,3.03-2.85,3.03-2.85-1.36-2.85-3.03m4.76,0c0-1.17-.68-2.22-1.91-2.22s-1.92,1.05-1.92,2.22,.69,2.23,1.92,2.23,1.91-1.05,1.91-2.23"/><rect class="d" x="141.14" y="54.64" width=".89" height="7.95"/><path class="d" d="M151.87,61.39v-3.77h-.95v-.79h.95v-1.57h.89v1.57h1.17v.79h-1.17v3.58c0,.43,.19,.74,.58,.74,.25,0,.49-.11,.61-.24l.26,.67c-.23,.21-.55,.37-1.07,.37-.85,0-1.28-.49-1.28-1.35"/></svg>