<?xml version="1.0" encoding="UTF-8"?><svg id="a" xmlns="http://www.w3.org/2000/svg" viewBox="0 0 600 600"><path d="M299.88,52.25c137.61,.18,248.2,111.13,247.97,248.79-.22,136.5-111.67,246.88-249.1,246.72-136.35-.16-246.86-111.91-246.54-249.3,.32-135.54,111.83-246.39,247.66-246.21Zm-.04,466.45c120.57,.05,218.67-97.64,218.91-218,.24-120.98-97.62-219.16-218.61-219.36-120.46-.2-218.65,97.61-218.88,218.03-.23,121.02,97.7,219.29,218.59,219.33Z"/><path d="M376.6,433.65c-38.8-3.64-74.84-15.89-107.18-37.77-56.99-38.57-92.34-91.53-103.96-159.77-3.01-17.71,.71-33.23,14.03-45.96,3.72-3.56,6.99-7.59,10.56-11.31,5.49-5.72,12.13-9.37,19.84-11.39,20.31-5.34,38.97,9.99,55.43,33.11,10.29,14.45,6.24,31.48-7.77,46.43-7.33,7.82-14.8,15.11-25.6,18.25-8.44,2.46-6.06,8.46-3.34,13.99,16.49,33.51,40.16,60.59,72.27,79.94,7.71,4.64,16,8.31,23.95,12.56,6.58,3.52,10.84,1.8,13.68-5.05,4.71-11.38,13.03-19.83,22.79-26.99,13.28-9.75,29.92-9.92,43.13-.15,8.31,6.15,15.87,13.27,22.47,21.21,10.58,12.73,11.9,29.7,2.9,43.19-12.53,18.77-29.1,30.95-53.19,29.72Z"/></svg>