<?xml version="1.0" encoding="UTF-8"?><svg id="a" xmlns="http://www.w3.org/2000/svg" viewBox="0 0 600 600"><path d="M499.51,366.14c0,42.9,.04,85.81-.02,128.71-.03,24.66-12.98,37.57-37.83,37.69-21.11,.1-42.21-.19-63.32,.16-6.33,.1-8.3-1.85-8.29-8.21,.17-96.19,0-192.37,.23-288.56,.05-22.49,14.12-35.66,36.8-35.85,12.45-.1,24.91-.13,37.37,.02,21.16,.25,34.93,13.97,35.01,35.26,.15,43.59,.05,87.19,.04,130.78Z"/><path d="M357.05,412.4c0,37.03-.17,74.06,.15,111.09,.06,7.05-1.57,9.36-9.08,9.25-32.53-.45-65.07-.43-97.59,0-7.56,.1-9.04-2.44-9.01-9.43,.24-73.72,.07-147.43,.2-221.15,.04-21.75,13.94-35.35,35.9-35.59,13.84-.15,27.69-.06,41.53-.03,24.51,.07,37.68,13.07,37.8,37.87,.18,35.99,.05,71.99,.05,107.98h.06Z"/><path d="M208.49,424.44c0,32.87-.27,65.75,.2,98.61,.11,7.91-2.18,9.89-9.85,9.7-21.44-.53-42.91,0-64.36-.28-19.99-.27-33.81-14.14-33.89-34.23-.19-49.13-.2-98.27,0-147.41,.08-20.53,14.11-34.19,34.83-34.36,20.76-.18,41.54,.36,62.28-.25,8.41-.25,11.19,1.7,11.03,10.65-.58,32.52-.23,65.05-.23,97.58Z"/><path d="M327.22,100.36c-11.81,0-21.39,.18-30.96-.05-11.08-.26-18.38-7.31-18.16-17.07,.21-9.11,7.62-16.03,18.07-16.07,22.48-.08,44.96-.02,67.44,.39,12.69,.23,18.82,6.55,19.06,19.56,.39,21.78,.48,43.57,.37,65.36-.05,10.48-6.94,17.81-16.11,18.09-9.48,.29-16.69-7.3-17.03-18.27-.21-6.9-.04-13.81-.04-20.72-4.31-1.21-4.83,2.43-6.27,4.28-43.9,56.86-102.55,91.46-170.01,112.7-10.78,3.39-19.56-1.15-22.44-10.55-2.81-9.16,2.37-17.96,13.04-21.2,45.93-13.99,87.48-35.87,123.2-68.23,14.92-13.51,27.87-28.7,39.85-48.24Z"/></svg>