<?xml version="1.0" encoding="UTF-8"?><svg id="a" xmlns="http://www.w3.org/2000/svg" viewBox="0 0 600 600"><path d="M86.24,388.41c0-17.69,.35-35.38-.16-53.06-.22-7.82,2.74-12.3,9.39-16.05,28.59-16.14,56.81-32.93,85.49-48.89,6.39-3.56,8.18-7.52,8.1-14.47-.36-33.12-.01-66.26-.29-99.38-.06-6.77,2.36-10.84,8.17-14.15,31.94-18.19,63.75-36.59,95.5-55.1,5.15-3,9.48-3.37,14.82-.25,31.98,18.68,64.06,37.2,96.25,55.51,5.92,3.37,7.92,7.72,7.87,14.35-.24,33.41,.11,66.82-.3,100.22-.08,6.62,2.22,9.88,7.71,12.98,28.82,16.29,57.33,33.13,86.16,49.41,6.39,3.61,9.17,7.89,9.11,15.35-.3,35.93-.28,71.87,0,107.8,.06,7.35-2.45,11.86-8.9,15.51-31.49,17.84-62.84,35.94-94.04,54.28-6.13,3.61-10.96,3.47-17.04-.11-29.01-17.1-58.31-33.7-87.36-50.73-4.61-2.71-7.94-3.12-12.89-.2-29.24,17.26-58.84,33.91-88.12,51.1-5.82,3.41-10.39,3.53-16.26,.09-31.71-18.59-63.59-36.89-95.52-55.09-5.51-3.14-7.92-7.12-7.82-13.53,.29-18.52,.1-37.06,.1-55.59Zm205.35-73.48c0-32.68-.1-63.77,.11-94.85,.03-4.54-3.03-5.58-5.81-7.19-24.75-14.35-49.52-28.64-74.3-42.93-1.61-.93-3.15-2.5-5.71-1.05,0,30.65,.02,61.51-.04,92.37,0,2.79,.77,4.71,3.31,6.17,26.97,15.47,53.89,31.02,82.44,47.49Zm-102.7,177.61c0-32.69-.06-63.56,.08-94.43,.02-3.77-1.82-5.41-4.69-7.05-24.82-14.24-49.65-28.47-74.32-42.98-5.83-3.43-6.87-1.96-6.81,4.15,.24,23.02,1.29,46.12-.29,69.03-1.13,16.43,3.8,25.74,18.92,33.1,22.59,11,43.83,24.75,67.1,38.17Zm16.98-1.15c1.69-.35,2.57-.32,3.22-.7,26.24-15.09,52.41-30.3,78.73-45.25,3.73-2.12,3.82-4.94,3.81-8.39-.05-28.32-.16-56.65,.07-84.97,.05-6.25-1.04-7.39-6.75-4.02-24.38,14.39-48.9,28.56-73.52,42.52-4.25,2.41-5.74,5.13-5.66,9.91,.28,15.7,.1,31.41,.1,47.11,0,14.47,0,28.93,0,43.79Zm102.7-147c0,32.95,.08,64.03-.09,95.12-.02,4.53,3.21,5.52,5.98,7.12,24.26,14.07,48.54,28.09,72.87,42.02,1.96,1.12,3.8,3.56,6.96,1.81,0-27.69-.49-55.48,.26-83.22,.27-9.94-2.54-15.34-11.51-20.16-24.64-13.23-48.59-27.73-74.48-42.7Zm85.71-176.8c-2.21,.8-3.3,1.03-4.22,1.55-25.76,14.84-51.43,29.83-77.3,44.48-4.03,2.29-4.25,5.21-4.24,8.99,.07,28.62,.03,57.24,.1,85.86,0,1.74-1.03,3.96,1.86,5.41,26.71-15.43,53.62-31.02,80.59-46.5,2.6-1.49,3.24-3.44,3.23-6.17-.05-30.85-.03-61.7-.03-93.63Zm17,324.06c1.87-.59,2.7-.71,3.38-1.09,25.98-14.96,51.89-30.05,77.97-44.84,3.97-2.25,4.37-5.18,4.36-8.99-.07-28.32-.14-56.63,.02-84.95,.03-5.55-.79-7.21-6.33-3.96-24.89,14.6-49.93,28.96-74.97,43.31-2.92,1.67-4.53,3.45-4.51,7.13,.14,30.83,.08,61.65,.08,93.38ZM214.57,152.03c10.63,6.15,19.75,11.12,28.52,16.64,4.09,2.57,7.21,2.56,11.37,.09,18.82-11.16,37.85-21.99,56.8-32.93,7.45-4.3,14.91-8.59,23.16-13.34-10.8-6.25-20.6-11.7-30.15-17.57-3.52-2.17-6.01-1.31-9.16,.54-17.91,10.5-35.94,20.81-53.92,31.18-8.44,4.87-16.87,9.75-26.62,15.39Zm102.56,177.63c10.45,6.02,20.02,11.19,29.2,16.98,3.99,2.52,6.91,2.06,10.67-.18,13.96-8.3,28.09-16.31,42.16-24.44,12.23-7.07,24.45-14.15,37.74-21.83-6.84-4.02-12.83-6.62-17.72-10.6-11.09-9.01-20.64-8.29-32.76-.38-21.99,14.36-45.34,26.63-69.28,40.45Zm-85.38-29.54c-10.6-6.14-19.68-11.13-28.47-16.6-4.09-2.55-7.3-2.57-11.52-.09-24.69,14.5-49.56,28.7-74.33,43.06-1.5,.87-3.73,1.2-3.96,4.04,5.28,3.05,11.15,5.46,15.8,9.34,11.66,9.72,21.79,8.29,34.26,.14,21.53-14.07,44.39-26.11,68.21-39.89Zm51.23,29.51c-10.26-5.92-19.58-10.96-28.52-16.6-4.16-2.63-7.2-2.31-11.31,.11-22.69,13.33-45.61,26.26-68.33,39.53-3.49,2.04-7.75,3.2-10.35,7.32,9.63,5.57,19.15,10.88,28.46,16.55,3.34,2.04,5.95,1.9,9.21-.07,8.14-4.92,16.48-9.51,24.71-14.28,18.36-10.64,36.71-21.3,56.13-32.57Zm205.19,.05c-10.35-6.01-19.83-11.29-29.05-16.99-3.55-2.2-6.2-2.24-9.85-.07-17.58,10.43-35.37,20.52-53.07,30.75-8.86,5.12-17.68,10.29-27.46,15.99,4.58,2.68,8.35,4.17,11.21,6.69,15.31,13.5,29.32,11.82,45.8,.29,19.4-13.58,40.88-24.2,62.43-36.66Zm-222.2-148.02c10.22,5.94,19.29,10.9,28.02,16.4,4.38,2.75,7.77,2.67,12.23-.02,14.89-8.97,30.08-17.45,45.13-26.16,11.02-6.38,21.99-12.82,34.14-19.91-11.23-6.5-21.15-12.18-31-17.97-2.59-1.52-4.7-.8-7.03,.55-26.68,15.46-53.38,30.87-81.49,47.11Z"/><path d="M431.13,466.62c-4.83-.52-7.81-1.96-9.15-5.46-1.45-3.8-.7-7.6,2.77-9.69,10.77-6.5,21.74-12.67,32.69-18.85,3.51-1.98,6.58-.34,9.08,2.13,2.68,2.65,3.64,6.78,1.18,9.15-10.78,10.43-24.81,15.71-36.58,22.72Z"/><path d="M489.63,428.83c-.39,5.42-2.8,8.58-7.92,8.51-5.46-.08-8.22-3.32-7.96-8.71,.24-5.06,3.23-7.62,8.26-7.53,5.31,.09,7.22,3.51,7.62,7.73Z"/></svg>